<?xml version="1.0" encoding="UTF-8"?>
<svg id="Livello_2" xmlns="http://www.w3.org/2000/svg" version="1.1" viewBox="0 0 270.1 128.8">
  <!-- Generator: Adobe Illustrator 29.1.0, SVG Export Plug-In . SVG Version: 2.1.0 Build 142)  -->
  <defs>
    <style>
      .st0 {
        fill: #010101;
      }

      .st1 {
        fill: #1d1d1b;
      }
    </style>
  </defs>
  <path class="st0" d="M181,45.6c0,0-.2-.2-.3-.3.5-2.8,0-5.7-2.1-8.3-1.2-1.5-2.7-2.6-4.3-3.3,1.9-4.9,2.7-10.8,1-15.8-1.9-5.5-6.9-8.9-12.7-8.4-3.3.2-6.1,1.5-8.7,3.3-.2-.2-.4-.3-.6-.4-.2-2.6-1-5.2-2.1-7.3-2.2-3.9-6.9-6.3-11.2-4.3-2.1,1-3.5,2.9-4.7,4.9-.2,0-.5,0-.8-.1-2.1-.2-4.4.2-6.4,1.1-.4-.7-.9-1.4-1.5-2-3-3.4-7.8-5.6-12.3-4.3-3.7,1.1-6.6,4.4-7.5,8.1-.8,3.3,0,6.8,2,9.4-.2.3-.4.6-.6.9-8.2.9-16.3,6.8-18.8,14.6-1,3-.7,6,.4,8.6-.3.4-.5.8-.7,1.3-2.4,4.8-2.4,10.6-.2,15.5,2.5,5.6,8,8.8,14.1,9,1.5,0,2.9,0,4.3-.3-.3,2.3,0,4.7,1.2,7,3,6,10.6,7.5,16.7,6.8,3.1-.4,6.1-1.2,9.1-2.3,2.6,2.5,6.3,4.1,9.9,4.6,7.2,1,15.4-1.7,20.1-7.5,1.8-2.3,3.1-5.1,3.6-8,4.6.6,9.1-2.9,11.9-6.4,3.7-4.6,5.7-11.1,1.4-16h0ZM102.4,57c0,0-.2-.1-.2-.2-.3-.3-.6-.5-.8-.8,0,0-.1-.2-.2-.2,0,0,0,0,0-.1-.2-.3-.4-.6-.6-.9-.1-.2-.2-.4-.3-.7,0,0,0-.2,0-.2,0-.2-.1-.4-.2-.6,0-.3-.2-.6-.2-1,0,0,0,0,0,0h0c0-.2,0-.4,0-.5,0-.3,0-.6,0-.8,0-.2,0-.3,0-.5h0c1.5.5,3.1.7,4.8.9.1,2.5.7,4.8,1.8,7.1h-.2c-.2,0-.3,0-.5,0h0s0,0,0,0c-.4,0-.8-.2-1.3-.3,0,0-.2,0-.3,0,0,0-.3,0-.3-.1-.3-.1-.6-.3-.9-.5,0,0-.2,0-.2-.2h0ZM136.4,68.5c.2-.5.5-1,.8-1.5,2.4.6,4.9.8,7.4.7h0c-1.4,1.1-3,2.1-4.6,2.9-1.3.7-2.6,1.4-4,2.1-.4-1.3-.3-2.7.4-4.2h0ZM171.6,51.4c-.2-.5-.4-1-.6-1.5.8-1,1.5-2,2-3.1.6,0,1.2.2,1.8.5-.8,1.5-2,3-3.2,4.1h0ZM109.6,52.9c.6.5,1.2.9,1.9,1.3.5.5,1.1.9,1.7,1.3,0,0,0,0,0,0-.1.1-.3.3-.4.4,0,0-.2.1-.2.2-.3.2-.6.4-.9.6-.2,0-.3.2-.5.3-.8-1.3-1.2-2.7-1.5-4.2h0ZM129.5,27.3c.2-.6.4-1.2.7-1.8.5,0,1-.3,1.4-.6.2.2.3.4.4.6-1,.8-1.9,1.6-2.8,2.5,0-.2.1-.5.2-.7h0ZM157.9,51.7c-.2,0-.4,0-.6-.1.2-.4.3-.7.4-1.1,0-.2.1-.4.2-.6,0,.6,0,1.2,0,1.8h0ZM131.9,52.8c-.2-.2-.4-.4-.7-.6,1.3-1.3,2.3-2.8,3-4.4.1,0,.3.1.4.2.3,1,.7,1.9,1.2,2.8-1.2.8-2.6,1.5-4,2.1h0ZM129.3,46.5c0-.7,0-1.3.2-1.9.1.2.3.3.4.5-.2.5-.4,1-.7,1.5ZM121.5,48.2c0,.8.1,1.5.2,2.3-.5.1-1,.3-1.4.5-.4-.5-.8-1.1-1.2-1.7.8-.3,1.6-.6,2.4-1ZM122.8,34s0,0,0,0c.1.3.2.5.3.8,0,1.2,0,2.5-.5,3.7-.7,1.7-2.2,3.4-3.9,4.2.4-.8.3-1.8-.5-2.7-.9-1-2-1.8-3.1-2.5,2.1-2,4.8-3.6,7.6-3.5h0ZM141.7,55.3c0,.2,0,.5,0,.7-.9.2-1.9.3-2.8.3.9-.4,1.8-.8,2.8-1.1ZM117,30.3c-.5.2-1,.5-1.4.8,0-.2.2-.5.2-.7.4,0,.8,0,1.2,0ZM150.6,32.7c-.2-.2-.3-.4-.5-.6,1.4-.5,2.8-.9,4.2-1.2-.3,1.1-.8,2.1-1.5,3.1-.7-.5-1.5-.9-2.2-1.3h0ZM122.6,23.6c-.2-.1-.3-.3-.5-.5.2-.1.5-.2.8-.4,0,.3-.2.5-.3.8h0ZM164.4,40.3c-.4.4-.9.9-1.3,1.3.5-.9.9-1.8,1.3-2.8.5,0,1-.1,1.5-.1-.4.6-.9,1.1-1.4,1.6h0ZM143.3,61.9c0,.3,0,.6,0,.9-.5,0-1.1,0-1.6,0,.5-.3,1-.6,1.6-.8ZM153.2,65.4c1.1-.6,2.2-1.3,3.3-2.1.6.9.9,2,.9,3.2-.2.1-.5.2-.7.4-.3.2-.6.4-.8.7-1.2.3-2.4.5-3.6.3-.2,0-.3,0-.5-.1.6-.7,1.1-1.5,1.5-2.2h0ZM164.6,55.8c0,0-.2-.2-.2-.3.9-.6,1.9-1.2,2.8-1.9,0,.3.1.6.2.9-.9.5-1.8.9-2.7,1.3h0ZM103.1,39.6s0,0-.1,0c0,0,0,0,.1,0h0ZM103.7,46.1s.2,0,.3,0c0,0,.2,0,.3,0,0,0,0,.1,0,.2-.3,0-.5,0-.8,0,0,0,0,0,0,0h0ZM124.3,62.4c-.5.2-.9.3-1.4.4.5-.2.9-.3,1.4-.4ZM146.9,72.1c.3-.2.7-.5,1-.8,2.1,1.3,4.6,1.7,7.1,1.4-3.3,3.6-9.4,4.7-14.6,3.4,2.3-1.2,4.5-2.5,6.5-4h0ZM165.6,32.4h0ZM123.3,16.2c-1.5,0-3,.2-4.5.7-.5.1-1,.3-1.4.5-.2,0-.3,0-.5-.1-.2,0-.3,0-.5-.1,1.9-1.4,4.3-2.5,6.8-3,0,.7,0,1.3,0,2h0ZM99.8,34.8c0-.3,0-.5,0-.8,0,0,0-.2,0-.3h0c0-.5.2-.9.4-1.4,0,0,0-.2,0-.3,0,0,0,0,0,0,.1-.2.2-.5.4-.7.1-.2.2-.4.3-.5h0c0,0,.1-.1.2-.2.2-.2.4-.4.6-.6h0c0,0,.2-.2.3-.2.2-.1.4-.2.6-.4.1,0,.4-.2.4-.2.3-.1.7-.2,1-.3-.3,1.8-.5,3.7-.5,5.5-1.3,0-2.6.2-3.8.5v-.2h0ZM98.9,42.8c-.5.3-.9.7-1.3,1-.6-.4-1.2-.9-1.7-1.4.4-.4.9-.8,1.4-1.1.4.5.9,1,1.5,1.4ZM114,71.6c.3-1.6,1-3.1,2-4.3,2,.7,4.1.9,6.3.6,1.6-.2,3.1-.6,4.6-1.3,0,.9,0,1.8.2,2.7,0,0-.1,0-.2.1-3.7,2.6-8.5,2.9-12.9,2.1ZM169.6,17.5c2.2,3.5,1.8,8.2.8,11.9,0,0,0,.2,0,.2-1.5-1.3-3.3-2.3-5.2-2.9-.2,0-.4-.1-.7-.2-.1-.2-.2-.5-.3-.8-.6-4-2.9-7.6-6.3-9.7.8-.5,1.7-.9,2.6-1.1,3.3-1,7.3-.6,9.2,2.5h0ZM146.5,6.9c.4.6.8,1.3,1.1,2.1-.6-.5-1.2-1-1.9-1.4-1.5-.8-3.2-1.3-4.8-1.1.2-.2.4-.4.6-.7,1.7-1.5,3.8-.7,5,1.1h0ZM111.5,10.5c.2-1.1.6-2.2,1.4-3.3,0,0,.4-.5.5-.5.2-.2.4-.4.7-.6,0,0,.4-.3.5-.3.1,0,.9-.5.7-.3,1.4-.5,2.6-.4,4,0,1.4.5,2.7,1.4,3.7,2.6.3.3.5.6.8.9-3.2.4-6.3,1.6-9,3.3-.8.6-1.6,1.2-2.4,1.8-.6-1.1-.9-2.3-.8-3.6h0ZM94.9,33c-.1.9-.2,1.7,0,2.6,0,.4.1.8.2,1.3-.4.3-.9.5-1.3.8h0c0-1.7.4-3.2,1.2-4.7h0ZM94,57.8c-2-3.3-2.3-7.3-1-10.9,0,0,0-.2.1-.3.6.6,1.2,1.1,1.9,1.6,0,0,0,0,0,0-1,3.3-.3,7.1,1.6,9.9,1.5,2.3,3.7,3.9,6.2,4.7-3.6-.2-7-1.8-8.9-4.9h0ZM123.9,76.3c1.8-.5,3.5-1.2,5.1-2.2.2.3.4.6.7.9,0,0,0,0,.1.1-1.9.6-3.9.9-5.8,1.1h0ZM175.1,59.1c-1.3,1.4-2.7,2.8-4.5,3.5-.1,0-.2,0-.4.1.6-1,1.1-2.1,1.4-3.2,2.6-1.2,4.9-3,6.5-5.4-.6,1.8-1.8,3.5-3.1,4.9h0Z"/>
  <path class="st1" d="M19.5,106.4c0-1.6-.2-3.1-.7-4.4s-1.1-2.4-1.9-3.4c-.8-.9-1.8-1.7-3-2.2s-2.4-.8-3.9-.8H0v33.1h7.6v-11.7h2.5c1.4,0,2.7-.3,3.9-.8s2.1-1.2,3-2.2c.8-.9,1.5-2.1,1.9-3.4.5-1.3.7-2.8.7-4.4h0Z"/>
  <polygon class="st1" points="42.5 121.3 29.6 121.3 29.6 115.9 39.1 115.9 39.1 108.4 29.6 108.4 29.6 103.1 42.5 103.1 42.5 95.6 22.1 95.6 22.1 128.8 42.5 128.8 42.5 121.3"/>
  <path class="st1" d="M54.2,104.9c.9-1.1,2.1-1.7,3.6-1.8.6,0,1.2,0,1.8.4.6.3,1.1.6,1.5,1.1s.8.9,1.1,1.5c.3.6.6,1.1.7,1.7l6.5-3.6c-.3-1-.8-2-1.4-3s-1.3-1.9-2.3-2.7-2.1-1.4-3.4-2c-1.3-.5-2.9-.8-4.7-.8h0c-2,0-3.8.4-5.4,1.1s-2.8,1.8-3.8,3c-1,1.2-1.8,2.7-2.3,4.3-.5,1.6-.8,3.2-.8,4.8v6.9c0,1.7.4,3.4.8,5,.5,1.6,1.2,3,2.1,4.2,1,1.2,2.2,2.2,3.7,2.9,1.5.7,3.4,1.1,5.7,1.1h0c2,0,3.7-.3,5.1-.9,1.4-.6,2.5-1.3,3.4-2.1s1.6-1.6,2.1-2.4c.5-.8.9-1.5,1.1-2.1l-6.5-3.6c-.5,1-1.1,1.9-1.9,2.7s-1.9,1.1-3.2,1c-1.5-.1-2.7-.7-3.7-1.8-.9-1.1-1.4-2.5-1.4-4.1v-6.5c0-1.6.5-3,1.4-4.1h0Z"/>
  <path class="st1" d="M95.9,107.8c0-1.5-.3-3-.8-4.4-.5-1.4-1.3-2.7-2.4-3.8-1.2-1.3-2.6-2.3-4.2-2.9s-3.2-1-5-1h0c-1.8,0-3.4.3-4.9,1-1.5.7-2.9,1.7-4.2,2.9-1,1.1-1.8,2.4-2.4,3.9-.6,1.5-.8,2.9-.8,4.3v7.8c0,1.8.3,3.5.8,5s1.3,3,2.5,4.2c1.2,1.3,2.7,2.3,4.2,2.9s3.2,1,4.9,1h0c1.8,0,3.4-.3,5-1s2.9-1.7,4.2-3c1.2-1.2,2-2.7,2.5-4.3.5-1.7.7-3.3.7-4.9v-7.8h0Z"/>
  <path class="st1" d="M120.6,128.8l-6.7-13.2c.4,0,.9-.2,1.6-.6s1.4-1,2-1.8c.7-.8,1.2-1.8,1.7-2.9s.7-2.5.7-4-.2-2.8-.5-4.1c-.3-1.3-.9-2.4-1.6-3.4-.8-1-1.8-1.7-3-2.3s-2.8-.9-4.8-.9h-10.1v33.2h7.5v-10.8h0l4.5,10.8h8.6Z"/>
  <polygon class="st1" points="132.5 95.6 122.8 128.8 131.3 128.8 134.2 120 140.7 120 143.7 128.8 152.2 128.8 142.5 95.6 132.5 95.6"/>
  <polygon class="st1" points="174.8 112.5 183.7 128.8 191.2 128.8 191.2 95.6 183.3 95.6 183.3 111.9 174.4 95.6 166.8 95.6 166.8 128.8 174.8 128.8 174.8 112.5"/>
  <polygon class="st1" points="214.9 121.3 202.1 121.3 202.1 115.9 211.5 115.9 211.5 108.4 202.1 108.4 202.1 103.1 214.9 103.1 214.9 95.6 194.6 95.6 194.6 128.8 214.9 128.8 214.9 121.3"/>
  <path class="st1" d="M232.6,115.5c.4,0,.9-.2,1.6-.6.7-.4,1.4-1,2-1.8.7-.8,1.2-1.8,1.7-2.9.5-1.2.7-2.5.7-4s-.2-2.8-.5-4.1c-.3-1.3-.9-2.4-1.6-3.4-.8-1-1.8-1.7-3-2.3s-2.8-.9-4.8-.9h-10.1v33.2h7.5v-10.8h0l4.5,10.8h8.6l-6.7-13.2h0Z"/>
  <polygon class="st1" points="260.4 95.6 250.4 95.6 240.7 128.8 249.2 128.8 252.1 120 258.6 120 261.6 128.8 270.1 128.8 260.4 95.6"/>
</svg>